<?xml version="1.0" standalone="no"?>
<!DOCTYPE svg PUBLIC "-//W3C//DTD SVG 20010904//EN"
 "http://www.w3.org/TR/2001/REC-SVG-20010904/DTD/svg10.dtd">
<svg version="1.0" xmlns="http://www.w3.org/2000/svg"
 width="947.000000pt" height="1280.000000pt" viewBox="0 0 947.000000 1280.000000"
 preserveAspectRatio="xMidYMid meet">
<metadata>
Created by potrace 1.15, written by Peter Selinger 2001-2017
</metadata>
<g transform="translate(0.000000,1280.000000) scale(0.100000,-0.100000)"
fill="#000000" stroke="none">
<path d="M4776 12788 c-2 -7 -9 -49 -16 -93 -6 -44 -29 -133 -51 -198 -95
-289 -286 -574 -569 -851 -77 -75 -134 -138 -127 -141 129 -40 186 -62 225
-89 137 -94 147 -227 32 -405 -66 -101 -115 -148 -174 -165 -176 -51 -321 -15
-459 114 -180 168 -333 509 -422 937 -14 67 -26 125 -27 130 -1 4 -5 -253 -8
-572 -6 -665 -3 -639 -95 -732 -63 -62 -122 -83 -236 -83 -136 0 -174 13 -252
89 -216 208 -218 376 -6 480 l80 39 -50 36 c-106 78 -316 154 -627 226 -189
43 -482 98 -674 124 -63 9 -131 19 -150 22 -29 4 -19 -4 50 -41 342 -186 685
-615 1010 -1265 128 -256 255 -545 299 -682 14 -43 -86 -7 1091 -388 190 -61
442 -143 560 -182 118 -38 292 -94 385 -125 l170 -55 470 150 c565 181 1572
502 1707 545 l98 31 30 78 c60 155 154 366 245 553 335 682 701 1147 1055
1340 l85 46 -50 -6 c-133 -16 -398 -60 -560 -91 -450 -89 -763 -190 -879 -286
l-38 -31 62 -28 c153 -70 208 -165 165 -290 -21 -59 -99 -164 -166 -221 -67
-57 -119 -72 -232 -66 -133 7 -214 62 -273 186 -50 106 -54 148 -55 692 -1
346 -4 491 -11 460 -106 -507 -253 -844 -445 -1021 -139 -127 -289 -165 -460
-114 -112 33 -252 243 -253 378 0 123 92 213 265 262 33 9 66 18 73 21 7 2
-24 37 -73 80 -212 188 -424 462 -544 701 -75 150 -151 394 -151 488 0 26 -18
35 -24 13z"/>
<path d="M1454 8809 c-572 -391 -1043 -715 -1049 -721 -7 -7 -4 -9 10 -5 11 3
117 28 235 56 118 28 401 95 629 150 228 54 407 93 397 85 -10 -7 -368 -225
-796 -484 l-778 -472 -21 -111 c-118 -617 -103 -1342 40 -1924 72 -294 203
-631 340 -874 90 -160 162 -269 173 -266 5 2 139 189 297 416 158 227 292 418
298 424 8 8 9 -71 5 -279 -3 -159 -9 -525 -14 -814 l-8 -525 512 -505 c703
-694 765 -754 770 -749 2 2 79 114 170 248 l166 244 0 -424 0 -425 946 -924
c521 -509 951 -925 955 -925 5 0 460 414 1013 920 l1005 920 3 429 3 430 139
-247 c77 -136 143 -246 148 -245 4 2 284 284 623 628 l616 625 -6 165 c-3 91
-10 379 -15 640 -5 261 -12 554 -16 650 -4 130 -3 172 5 164 7 -6 140 -197
297 -425 156 -228 289 -414 295 -414 17 0 142 205 228 375 209 412 328 837
383 1370 17 162 16 706 0 860 -31 282 -74 543 -93 566 -5 6 -360 224 -789 484
-429 260 -778 475 -776 477 3 4 130 -26 761 -182 215 -53 473 -116 575 -141
102 -24 192 -47 200 -50 10 -3 11 -2 5 4 -5 5 -336 218 -735 472 -399 255
-925 591 -1169 748 -245 156 -450 286 -457 289 -7 3 -511 -161 -1121 -363
-609 -202 -1112 -367 -1118 -367 -11 0 -343 109 -1456 479 -421 140 -771 254
-776 254 -6 0 -478 -320 -1049 -711z"/>
</g>
</svg>
