<?xml version="1.0" encoding="utf-8"?>
<!-- Generator: Adobe Illustrator 27.5.0, SVG Export Plug-In . SVG Version: 6.00 Build 0)  -->
<svg version="1.1" xmlns="http://www.w3.org/2000/svg" xmlns:xlink="http://www.w3.org/1999/xlink" x="0px" y="0px"
	 viewBox="0 0 500 500" style="enable-background:new 0 0 500 500;" xml:space="preserve">
<g id="BACKGROUND">
	<rect style="fill:#FFECEB;" width="500" height="500"/>
</g>
<g id="OBJECTS">
	<g>
		<g>
			<g>
				<g>
					<path style="fill:#83CCBE;" d="M282.628,182.307c-0.923-1.468-3.098-2.67-4.832-2.67h-55.592c-1.734,0-3.909,1.201-4.832,2.67
						l-12.411,19.738c-0.923,1.468-0.26,2.67,1.475,2.67h87.129c1.734,0,2.398-1.201,1.475-2.67L282.628,182.307z"/>
					<path style="fill:#5890A6;" d="M270.844,190.4c-0.59-0.938-1.979-1.706-3.087-1.706h-35.514c-1.108,0-2.497,0.768-3.087,1.706
						l-7.929,12.609c-0.59,0.938-0.166,1.705,0.942,1.705h55.661c1.108,0,1.532-0.767,0.942-1.705L270.844,190.4z"/>
				</g>
				<path style="opacity:0.3;fill:#328A96;" d="M204.961,202.044c-0.923,1.468-0.26,2.67,1.475,2.67h87.129
					c1.734,0,2.398-1.201,1.475-2.67l-3.298-5.245h-83.483L204.961,202.044z"/>
			</g>
			<g>
				<path style="fill:#9CD9CE;" d="M347.707,299.025c0,6.071-4.967,11.038-11.038,11.038H163.331
					c-6.071,0-11.038-4.967-11.038-11.038v-86.426c0-6.071,4.967-11.038,11.038-11.038h173.339c6.071,0,11.038,4.967,11.038,11.038
					V299.025z"/>
				<rect x="152.293" y="221.16" style="fill:#5890A6;" width="195.415" height="69.302"/>
				<rect x="152.293" y="234.343" style="fill:#328A96;" width="195.415" height="41.971"/>
			</g>
			<g>
				<path style="fill:#FFECEB;" d="M329.107,213.076c0,2.209-1.807,4.016-4.016,4.016h-19.443c-2.209,0-4.016-1.807-4.016-4.016
					v-3.485c0-2.209,1.807-4.016,4.016-4.016h19.443c2.209,0,4.016,1.807,4.016,4.016V213.076z"/>
				<g>
					<defs>
						<path id="SVGID_1_" d="M329.107,213.076c0,2.209-1.807,4.016-4.016,4.016h-19.443c-2.209,0-4.016-1.807-4.016-4.016v-3.485
							c0-2.209,1.807-4.016,4.016-4.016h19.443c2.209,0,4.016,1.807,4.016,4.016V213.076z"/>
					</defs>
					<clipPath id="SVGID_00000036244553104562807450000016584866670679893673_">
						<use xlink:href="#SVGID_1_"  style="overflow:visible;"/>
					</clipPath>
					<g style="clip-path:url(#SVGID_00000036244553104562807450000016584866670679893673_);">
						
							<rect x="280.843" y="186.987" transform="matrix(0.7071 -0.7071 0.7071 0.7071 -36.6225 287.9901)" style="fill:#F2D4D3;" width="96.962" height="2.431"/>
						
							<rect x="280.843" y="194.953" transform="matrix(0.7071 -0.7071 0.7071 0.7071 -41.8255 290.1453)" style="fill:#F2D4D3;" width="96.962" height="1.216"/>
						
							<rect x="286.713" y="198.985" transform="matrix(0.7071 -0.7071 0.7071 0.7071 -44.257 296.0155)" style="fill:#F2D4D3;" width="96.962" height="4.891"/>
					</g>
				</g>
			</g>
		</g>
		<g>
			<g>
				
					<ellipse transform="matrix(0.1642 -0.9864 0.9864 0.1642 -45.2558 461.9737)" style="fill:#2F4959;" cx="250" cy="257.694" rx="45.456" ry="45.456"/>
				<g>
					<path style="fill:#3B979E;" d="M250,297.594c-22.001,0-39.9-17.899-39.9-39.9s17.899-39.9,39.9-39.9s39.9,17.899,39.9,39.9
						S272.001,297.594,250,297.594z M250,219.304c-21.168,0-38.39,17.222-38.39,38.39c0,21.168,17.222,38.39,38.39,38.39
						c21.168,0,38.39-17.222,38.39-38.39C288.39,236.526,271.168,219.304,250,219.304z"/>
				</g>
				<g>
					<path style="fill:#3B979E;" d="M250,291.85c-18.834,0-34.157-15.323-34.157-34.156c0-18.834,15.322-34.157,34.157-34.157
						c18.834,0,34.157,15.322,34.157,34.157C284.157,276.528,268.834,291.85,250,291.85z M250,225.047
						c-18.001,0-32.647,14.645-32.647,32.647c0,18.001,14.645,32.647,32.647,32.647s32.647-14.645,32.647-32.647
						C282.647,239.693,268.001,225.047,250,225.047z"/>
				</g>
				<g>
					<path style="fill:#3B979E;" d="M250,285.777c-15.485,0-28.083-12.598-28.083-28.083s12.598-28.083,28.083-28.083
						s28.083,12.598,28.083,28.083S265.485,285.777,250,285.777z M250,231.121c-14.652,0-26.573,11.921-26.573,26.573
						c0,14.653,11.921,26.573,26.573,26.573c14.653,0,26.573-11.92,26.573-26.573C276.573,243.042,264.653,231.121,250,231.121z"/>
				</g>
				<g>
					<g>
						
							<ellipse transform="matrix(0.9332 -0.3593 0.3593 0.9332 -75.8918 107.0265)" style="fill:#9CD9CE;" cx="250" cy="257.694" rx="19.848" ry="19.848"/>
						
							<ellipse transform="matrix(0.9335 -0.3585 0.3585 0.9335 -75.7638 106.7498)" style="fill:#328A96;" cx="250" cy="257.694" rx="16.105" ry="16.105"/>
					</g>
					<g>
						<circle style="fill:#FFECEB;" cx="256.776" cy="263.71" r="4.44"/>
						<path style="fill:#FFECEB;" d="M262.906,255.077c0,1.474-1.195,2.67-2.67,2.67c-1.474,0-2.67-1.195-2.67-2.67
							c0-1.475,1.195-2.67,2.67-2.67C261.711,252.407,262.906,253.602,262.906,255.077z"/>
					</g>
				</g>
			</g>
			<path style="opacity:0.3;fill:#1B303A;" d="M276.302,220.632c4.956,7.28,7.855,16.073,7.855,25.544
				c0,25.105-20.351,45.456-45.456,45.456c-9.805,0-18.876-3.115-26.302-8.394c8.18,12.018,21.967,19.912,37.601,19.912
				c25.105,0,45.456-20.351,45.456-45.456C295.456,242.394,287.889,228.87,276.302,220.632z"/>
			<path style="opacity:0.1;fill:#FFFFFF;" d="M204.565,256.874c7.289,4.974,16.097,7.885,25.587,7.885
				c24.83,0,44.996-19.911,45.435-44.636c-7.289-4.974-16.097-7.885-25.587-7.885C225.17,212.238,205.004,232.15,204.565,256.874z"
				/>
		</g>
		<g>
			<g>
				<g>
					<path style="fill:#2F4959;" d="M199.167,201.561v-2.486c0-2.953-2.416-5.369-5.369-5.369h-18.334
						c-2.953,0-5.369,2.416-5.369,5.369v2.486H199.167z"/>
					<g>
						<defs>
							<path id="SVGID_00000025432646711535018120000003122159628697268884_" d="M199.167,201.561v-2.486
								c0-2.953-2.416-5.369-5.369-5.369h-18.334c-2.953,0-5.369,2.416-5.369,5.369v2.486H199.167z"/>
						</defs>
						<clipPath id="SVGID_00000003816657611688389210000012914131458947718296_">
							<use xlink:href="#SVGID_00000025432646711535018120000003122159628697268884_"  style="overflow:visible;"/>
						</clipPath>
						<g style="clip-path:url(#SVGID_00000003816657611688389210000012914131458947718296_);">
							<g>
								<g>
									<rect x="170.011" y="190.227" style="fill:#5890A6;" width="1.051" height="20.067"/>
									<rect x="174.037" y="190.227" style="fill:#5890A6;" width="1.051" height="20.067"/>
								</g>
								<g>
									<rect x="178.064" y="190.227" style="fill:#5890A6;" width="1.051" height="20.067"/>
									<rect x="182.091" y="190.227" style="fill:#5890A6;" width="1.051" height="20.067"/>
								</g>
							</g>
							<g>
								<g>
									<rect x="186.118" y="190.227" style="fill:#5890A6;" width="1.051" height="20.067"/>
									<rect x="190.145" y="190.227" style="fill:#5890A6;" width="1.051" height="20.067"/>
								</g>
								<g>
									<rect x="194.172" y="190.227" style="fill:#5890A6;" width="1.051" height="20.067"/>
									<rect x="198.199" y="190.227" style="fill:#5890A6;" width="1.051" height="20.067"/>
								</g>
							</g>
						</g>
					</g>
				</g>
				<rect x="170.094" y="199.552" style="opacity:0.2;fill:#1B323D;" width="29.073" height="2.008"/>
			</g>
			<g>
				<g>
					<path style="fill:#2F4959;" d="M329.906,201.561v-2.486c0-2.953-2.416-5.369-5.369-5.369h-18.334
						c-2.953,0-5.369,2.416-5.369,5.369v2.486H329.906z"/>
					<g>
						<defs>
							<path id="SVGID_00000092415040521392383190000014265895397366776711_" d="M329.906,201.561v-2.486
								c0-2.953-2.416-5.369-5.369-5.369h-18.334c-2.953,0-5.369,2.416-5.369,5.369v2.486H329.906z"/>
						</defs>
						<clipPath id="SVGID_00000103960557495320613890000014381427802306166690_">
							<use xlink:href="#SVGID_00000092415040521392383190000014265895397366776711_"  style="overflow:visible;"/>
						</clipPath>
						<g style="clip-path:url(#SVGID_00000103960557495320613890000014381427802306166690_);">
							<g>
								<g>
									<rect x="300.75" y="190.227" style="fill:#5890A6;" width="1.051" height="20.067"/>
									<rect x="304.777" y="190.227" style="fill:#5890A6;" width="1.051" height="20.067"/>
								</g>
								<g>
									<rect x="308.803" y="190.227" style="fill:#5890A6;" width="1.051" height="20.067"/>
									<rect x="312.83" y="190.227" style="fill:#5890A6;" width="1.051" height="20.067"/>
								</g>
							</g>
							<g>
								<g>
									<rect x="316.857" y="190.227" style="fill:#5890A6;" width="1.051" height="20.067"/>
									<rect x="320.884" y="190.227" style="fill:#5890A6;" width="1.051" height="20.067"/>
								</g>
								<g>
									<rect x="324.911" y="190.227" style="fill:#5890A6;" width="1.051" height="20.067"/>
									<rect x="328.938" y="190.227" style="fill:#5890A6;" width="1.051" height="20.067"/>
								</g>
							</g>
						</g>
					</g>
				</g>
				<rect x="300.833" y="199.552" style="opacity:0.2;fill:#1B323D;" width="29.073" height="2.008"/>
			</g>
		</g>
		<path style="opacity:0.1;fill:#1B303A;" d="M337.691,201.613c0.055,0.444,0.092,0.892,0.092,1.35v86.426
			c0,6.071-4.967,11.038-11.038,11.038H153.406c-0.345,0-0.685-0.021-1.022-0.052c0.672,5.439,5.333,9.688,10.946,9.688h173.339
			c6.071,0,11.038-4.967,11.038-11.038v-86.426C347.707,206.872,343.287,202.133,337.691,201.613z"/>
		<path style="opacity:0.1;fill:#FFFFFF;" d="M152.293,212.598v54.857c30.29-4.393,53.466-28.704,53.466-58.043
			c0-2.664-0.209-5.282-0.579-7.852h-41.849C157.26,201.561,152.293,206.527,152.293,212.598z"/>
	</g>
	<g>
		<path style="fill:#F28379;" d="M250,88.867c-88.849,0-161.133,72.284-161.133,161.133c0,88.849,72.284,161.133,161.133,161.133
			c88.849,0,161.133-72.284,161.133-161.133C411.133,161.151,338.849,88.867,250,88.867z M250,110.925
			c34.382,0,65.884,12.547,90.184,33.295L144.22,340.184c-20.748-24.3-33.295-55.802-33.295-90.184
			C110.925,173.314,173.313,110.925,250,110.925z M250,389.075c-34.382,0-65.883-12.547-90.183-33.294l195.964-195.964
			c20.747,24.3,33.294,55.802,33.294,90.183C389.075,326.686,326.686,389.075,250,389.075z"/>
		<g>
			<path style="fill:#DD645E;" d="M344.51,119.58c38.068,29.499,62.622,75.643,62.622,127.42
				c0,88.849-72.284,161.133-161.133,161.133c-35.28,0-67.941-11.406-94.509-30.712c27.257,21.12,61.438,33.712,98.509,33.712
				c88.849,0,161.133-72.284,161.133-161.133C411.133,196.432,384.85,148.894,344.51,119.58z"/>
			<path style="fill:#DD645E;" d="M155.817,352.781c2.855,2.438,5.814,4.758,8.861,6.962c-1.65-1.286-3.271-2.605-4.861-3.962
				l195.12-195.12c-1.031-1.299-2.08-2.583-3.156-3.844L155.817,352.781z"/>
			<path style="fill:#DD645E;" d="M106.925,247c0,34.382,12.547,65.884,33.295,90.184l0.844-0.844
				c-18.854-23.737-30.138-53.742-30.138-86.34c0-76.686,62.389-139.075,139.075-139.075c30.342,0,58.437,9.776,81.323,26.332
				c-23.574-18.371-53.19-29.332-85.323-29.332C169.313,107.925,106.925,170.314,106.925,247z"/>
		</g>
	</g>
</g>
</svg>
